<svg xmlns="http://www.w3.org/2000/svg" viewBox="0 0 24 24" fill="none"><g transform="scale(0.5)"><g> <path fill="currentColor" fill-rule="evenodd" d="M5.15353 46.5c-2.56372 0 -4.63329 -2.1394 -4.459765 -4.7367C1.1056 35.5989 2.24771 21.152 4.74435 5.28144 5.0882 3.09568 6.97598 1.5 9.17675 1.5H38.8228c2.2008 0 4.0886 1.59568 4.4324 3.78144C45.7519 21.152 46.894 35.5989 47.3058 41.7633c0.1735 2.5973 -1.896 4.7367 -4.4598 4.7367H5.15353Z" clip-rule="evenodd" opacity="0.4"></path> <path fill="currentColor" fill-rule="evenodd" d="M23.4454 11.988c-1.3649 -0.0575 -2.3522 -1.2176 -2.3924 -2.58319C21.0244 8.43238 21 7.23991 21 6c0 -1.67362 0.0445 -3.34725 0.0838 -4.5h5.8324C26.9555 2.65275 27 4.32638 27 6c0 1.23991 -0.0244 2.43238 -0.053 3.40481 -0.0402 1.36559 -1.0275 2.52569 -2.3924 2.58319 -0.1811 0.0076 -0.3667 0.012 -0.5546 0.012 -0.1879 0 -0.3735 -0.0044 -0.5546 -0.012ZM26.9162 46.5C26.9555 45.3472 27 43.6736 27 42c0 -1.2399 -0.0244 -2.4324 -0.053 -3.4048 -0.0402 -1.3656 -1.0275 -2.5257 -2.3924 -2.5832C24.3735 36.0044 24.1879 36 24 36c-0.1879 0 -0.3735 0.0044 -0.5546 0.012 -1.3649 0.0575 -2.3522 1.2176 -2.3924 2.5832C21.0244 39.5676 21 40.7601 21 42c0 1.6736 0.0445 3.3472 0.0838 4.5h5.8324ZM21.053 27.4048c0.0402 1.3656 1.0275 2.5257 2.3924 2.5832 0.1811 0.0076 0.3667 0.012 0.5546 0.012 0.1879 0 0.3735 -0.0044 0.5546 -0.012 1.3649 -0.0575 2.3522 -1.2176 2.3924 -2.5832 0.0286 -0.9724 0.053 -2.1649 0.053 -3.4048s-0.0244 -2.4324 -0.053 -3.4048c-0.0402 -1.3656 -1.0275 -2.5257 -2.3924 -2.5832C24.3735 18.0044 24.1879 18 24 18c-0.1879 0 -0.3735 0.0044 -0.5546 0.012 -1.3649 0.0575 -2.3522 1.2176 -2.3924 2.5832C21.0244 21.5676 21 22.7601 21 24s0.0244 2.4324 0.053 3.4048Z" clip-rule="evenodd"></path> </g></g></svg>
