<svg xmlns="http://www.w3.org/2000/svg" viewBox="0 0 24 24" fill="none"><g transform="scale(0.5)"><g> <path stroke="currentColor" stroke-linecap="round" stroke-linejoin="round" d="M2 45S3 25 6.63158 3" stroke-width="3.5"></path> <path stroke="currentColor" stroke-linecap="round" stroke-linejoin="round" d="M45.9997 45s-1 -20 -4.6315 -42" stroke-width="3.5"></path> <path stroke="currentColor" stroke-linejoin="round" d="M21.0347 10.4778c0.0388 1.3318 1.0078 2.4443 2.3387 2.507 0.2037 0.0096 0.4137 0.0152 0.6266 0.0152 0.2129 0 0.4229 -0.0056 0.6266 -0.0152 1.3309 -0.0627 2.2999 -1.1752 2.3387 -2.507C26.9853 9.79314 27 8.96231 27 8c0 -0.96231 -0.0147 -1.79314 -0.0347 -2.47783 -0.0388 -1.33182 -1.0078 -2.44422 -2.3387 -2.50697C24.4229 3.0056 24.2129 3 24 3c-0.2129 0 -0.4229 0.0056 -0.6266 0.0152 -1.3309 0.06275 -2.2999 1.17515 -2.3387 2.50697C21.0147 6.20686 21 7.03769 21 8s0.0147 1.79314 0.0347 2.4778Z" stroke-width="3.5"></path> <path stroke="currentColor" stroke-linejoin="round" d="M21.0347 42.4778c0.0388 1.3318 1.0078 2.4443 2.3387 2.507 0.2037 0.0096 0.4137 0.0152 0.6266 0.0152 0.2129 0 0.4229 -0.0056 0.6266 -0.0152 1.3309 -0.0627 2.2999 -1.1752 2.3387 -2.507 0.02 -0.6847 0.0347 -1.5155 0.0347 -2.4778 0 -0.9623 -0.0147 -1.7931 -0.0347 -2.4778 -0.0388 -1.3318 -1.0078 -2.4443 -2.3387 -2.507C24.4229 35.0056 24.2129 35 24 35c-0.2129 0 -0.4229 0.0056 -0.6266 0.0152 -1.3309 0.0627 -2.2999 1.1752 -2.3387 2.507C21.0147 38.2069 21 39.0377 21 40c0 0.9623 0.0147 1.7931 0.0347 2.4778Z" stroke-width="3.5"></path> <path stroke="currentColor" stroke-linejoin="round" d="M21.0347 26.4778c0.0388 1.3318 1.0078 2.4443 2.3387 2.507 0.2037 0.0096 0.4137 0.0152 0.6266 0.0152 0.2129 0 0.4229 -0.0056 0.6266 -0.0152 1.3309 -0.0627 2.2999 -1.1752 2.3387 -2.507 0.02 -0.6847 0.0347 -1.5155 0.0347 -2.4778 0 -0.9623 -0.0147 -1.7931 -0.0347 -2.4778 -0.0388 -1.3318 -1.0078 -2.4443 -2.3387 -2.507C24.4229 19.0056 24.2129 19 24 19c-0.2129 0 -0.4229 0.0056 -0.6266 0.0152 -1.3309 0.0627 -2.2999 1.1752 -2.3387 2.507C21.0147 22.2069 21 23.0377 21 24c0 0.9623 0.0147 1.7931 0.0347 2.4778Z" stroke-width="3.5"></path> </g></g></svg>
