<svg xmlns="http://www.w3.org/2000/svg" viewBox="0 0 24 24" fill="none"><g transform="scale(0.5)"><g> <path fill="currentColor" fill-rule="evenodd" d="M23.4454 11.988c-1.3649 -0.0575 -2.3522 -1.2176 -2.3924 -2.58319C21.0244 8.43238 21 7.23991 21 6c0 -1.67362 0.0445 -3.34725 0.0838 -4.5H9.17675c-2.20077 0 -4.08855 1.59568 -4.4324 3.78144C2.24771 21.152 1.1056 35.5989 0.693765 41.7633 0.52024 44.3606 2.58981 46.5 5.15353 46.5H21.0838C21.0445 45.3472 21 43.6736 21 42c0 -1.2399 0.0244 -2.4324 0.053 -3.4048 0.0402 -1.3656 1.0275 -2.5257 2.3924 -2.5832 0.1811 -0.0076 0.3667 -0.012 0.5546 -0.012 0.1879 0 0.3735 0.0044 0.5546 0.012 1.3649 0.0575 2.3522 1.2176 2.3924 2.5832 0.0286 0.9724 0.053 2.1649 0.053 3.4048 0 1.6736 -0.0445 3.3472 -0.0838 4.5H42.846c2.5638 0 4.6333 -2.1394 4.4598 -4.7367 -0.4118 -6.1644 -1.5539 -20.6113 -4.0506 -36.48186C42.9114 3.09568 41.0236 1.5 38.8228 1.5H26.9162C26.9555 2.65275 27 4.32638 27 6c0 1.23991 -0.0244 2.43238 -0.053 3.40481 -0.0402 1.36559 -1.0275 2.52569 -2.3924 2.58319 -0.1811 0.0076 -0.3667 0.012 -0.5546 0.012 -0.1879 0 -0.3735 -0.0044 -0.5546 -0.012ZM21.053 27.4048c0.0402 1.3656 1.0275 2.5257 2.3924 2.5832 0.1811 0.0076 0.3667 0.012 0.5546 0.012 0.1879 0 0.3735 -0.0044 0.5546 -0.012 1.3649 -0.0575 2.3522 -1.2176 2.3924 -2.5832 0.0286 -0.9724 0.053 -2.1649 0.053 -3.4048s-0.0244 -2.4324 -0.053 -3.4048c-0.0402 -1.3656 -1.0275 -2.5257 -2.3924 -2.5832C24.3735 18.0044 24.1879 18 24 18c-0.1879 0 -0.3735 0.0044 -0.5546 0.012 -1.3649 0.0575 -2.3522 1.2176 -2.3924 2.5832C21.0244 21.5676 21 22.7601 21 24s0.0244 2.4324 0.053 3.4048Z" clip-rule="evenodd"></path> </g></g></svg>
