<svg xmlns="http://www.w3.org/2000/svg" viewBox="0 0 24 24" fill="none"><g transform="scale(0.5)"><g> <path fill="currentColor" d="M10.4561 22.6641c0.6238 3.2784 3.4318 5.5165 6.5908 5.6845 1.0859 0.0577 2.5358 0.1094 4.3506 0.1377 0.0025 0.0062 0.0053 0.0124 0.0078 0.0186 0.8662 2.1374 1.0947 4.3984 1.0947 6.5293v3.039c0 0.73 -0.0133 1.3994 -0.0352 2.0079 -0.1239 3.4466 -2.8856 5.9108 -6.2011 6.0166 -1.2602 0.0401 -2.789 0.0693 -4.5869 0.0693 -1.79792 0 -3.32677 -0.0292 -4.58696 -0.0693 -3.31565 -0.1057 -6.07815 -2.5699 -6.202145 -6.0166 -0.010934 -0.3042 -0.019379 -0.6236 -0.02539 -0.9581l-0.009766 -1.0498v-3.039c0.00005 -2.131 0.229471 -4.3918 1.095701 -6.5293 0.46965 -1.1589 0.97497 -2.2258 1.38086 -3.0352 0.6786 -1.3531 1.9283 -2.4523 3.64063 -2.6289 0.80589 -0.0831 1.92738 -0.1525 3.48637 -0.1767m27.0859 0c1.56 0.0242 2.682 0.0936 3.4883 0.1767 1.7123 0.1766 2.963 1.2757 3.6416 2.6289 0.4059 0.8095 0.9112 1.8763 1.3808 3.0352 0.8662 2.1374 1.0947 4.3984 1.0948 6.5293v3.039c0 0.73 -0.0133 1.3994 -0.0352 2.0079 -0.124 3.4466 -2.8857 5.9108 -6.2012 6.0166 -1.2601 0.0401 -2.789 0.0693 -4.5869 0.0693s-3.3267 -0.0292 -4.5869 -0.0693c-3.3156 -0.1057 -6.0781 -2.5699 -6.2021 -6.0166 -0.011 -0.3042 -0.0194 -0.6236 -0.0254 -0.9581L25.5 38.0732v-3.039c0 -2.131 0.2295 -4.3918 1.0957 -6.5293 0.0026 -0.0064 0.0042 -0.0132 0.0068 -0.0195 1.8143 -0.0284 3.2639 -0.0791 4.3496 -0.1368 3.1592 -0.1679 5.966 -2.4062 6.5899 -5.6845"></path> <path fill="currentColor" d="M10.457 22.668c0.3444 1.8083 1.354 3.2985 2.7198 4.3008v3.1582c2.285 0.0209 4.0483 0.0852 5.2929 0.1513 1.9942 0.106 3.6779 1.5914 3.8614 3.6719 0.0921 1.0463 0.1689 2.4446 0.1689 4.1953 0 1.7506 -0.0768 3.1481 -0.1689 4.1943 -0.1834 2.0807 -1.8671 3.5659 -3.8614 3.6719 -1.5045 0.08 -3.7671 0.1602 -6.7929 0.1602 -3.0261 0 -5.28937 -0.0802 -6.79399 -0.1602 -1.99423 -0.106 -3.678 -1.5912 -3.86133 -3.6719 -0.092172 -1.0462 -0.168931 -2.4437 -0.168941 -4.1943 0 -1.7507 0.076763 -3.149 0.168941 -4.1953 0.18348 -2.0805 1.8672 -3.5658 3.86133 -3.6719 1.24469 -0.0661 3.00857 -0.1304 5.29399 -0.1513v-7.4561c0.0918 -0.0018 0.1852 -0.0015 0.2802 -0.0029m27.3672 0.0029v7.4561c2.285 0.0209 4.0484 0.0852 5.293 0.1513 1.9942 0.106 3.6778 1.5914 3.8613 3.6719 0.0922 1.0463 0.169 2.4446 0.169 4.1953 0 1.7506 -0.0768 3.1481 -0.169 4.1943 -0.1833 2.0807 -1.867 3.5659 -3.8613 3.6719 -1.5046 0.08 -3.7672 0.1602 -6.793 0.1602 -3.026 0 -5.2893 -0.0802 -6.7939 -0.1602 -1.9943 -0.106 -3.678 -1.5912 -3.8614 -3.6719 -0.0921 -1.0462 -0.1689 -2.4437 -0.1689 -4.1943 0 -1.7507 0.0768 -3.149 0.1689 -4.1953 0.1835 -2.0805 1.8672 -3.5658 3.8614 -3.6719 1.2447 -0.0661 3.0085 -0.1304 5.2939 -0.1513v-3.1602c1.3646 -1.0023 2.3726 -2.4915 2.7168 -4.2988 0.0961 0.0014 0.1905 0.0011 0.2832 0.0029" opacity="0.4"></path> <path fill="currentColor" d="M24 2c2.2134 0.00001 3.7036 0.08316 4.7061 0.18652 1.7123 0.1766 2.963 1.27571 3.6416 2.62891 0.4058 0.80942 0.9112 1.87632 1.3808 3.03516 0.8662 2.13746 1.0947 4.39841 1.0947 6.52931v3.039c0 0.73 -0.0132 1.3994 -0.0351 2.0079 -0.124 3.4466 -2.8857 5.9108 -6.2012 6.0166 -1.2602 0.0401 -2.789 0.0693 -4.5869 0.0693s-3.3267 -0.0292 -4.5869 -0.0693c-3.3157 -0.1057 -6.0782 -2.5699 -6.2022 -6.0166 -0.0109 -0.3042 -0.0193 -0.6236 -0.0254 -0.958l-0.0097 -1.0499v-3.039c0 -2.131 0.2295 -4.39182 1.0957 -6.52931 0.4696 -1.15887 0.975 -2.22574 1.3808 -3.03516 0.6786 -1.35315 1.9283 -2.45232 3.6407 -2.62891C20.2955 2.08314 21.7863 2 24 2"></path> <path fill="currentColor" d="M25.5 2.01367v7.45606c2.285 0.02094 4.0484 0.08522 5.293 0.15136 1.9942 0.10598 3.6778 1.59131 3.8613 3.67191 0.0922 1.0463 0.1689 2.4446 0.1689 4.1953 0 1.7505 -0.0767 3.1481 -0.1689 4.1943 -0.1833 2.0807 -1.867 3.5659 -3.8613 3.6719 -1.5046 0.0799 -3.7672 0.1601 -6.793 0.1601 -3.0261 0 -5.2893 -0.0801 -6.7939 -0.1601 -1.9943 -0.1061 -3.678 -1.5912 -3.8614 -3.6719 -0.0921 -1.0462 -0.1689 -2.4438 -0.1689 -4.1943 0 -1.7507 0.0767 -3.149 0.1689 -4.1953 0.1835 -2.0805 1.8672 -3.56586 3.8614 -3.67191 1.2446 -0.06614 3.0085 -0.13043 5.2939 -0.15136V2.01367C22.9589 2.00462 23.4578 2 24 2s1.0411 0.00461 1.5 0.01367" opacity="0.4"></path> <path fill="currentColor" d="M8.09961 39.9727c0.82843 0 1.5 0.6715 1.5 1.5 0 0.8284 -0.67157 1.5 -1.5 1.5H5.67676c-0.82843 0 -1.5 -0.6716 -1.5 -1.5 0 -0.8285 0.67157 -1.5 1.5 -1.5zm24.64749 0c0.8284 0 1.5 0.6715 1.5 1.5 0 0.8284 -0.6716 1.5 -1.5 1.5h-2.4229c-0.8284 0 -1.5 -0.6716 -1.5 -1.5 0 -0.8285 0.6716 -1.5 1.5 -1.5zM20.4229 19.3164c0.8284 0 1.5 0.6716 1.5 1.5s-0.6716 1.5 -1.5 1.5H18c-0.8284 0 -1.5 -0.6716 -1.5 -1.5s0.6716 -1.5 1.5 -1.5z"></path> </g></g></svg>
