<svg xmlns="http://www.w3.org/2000/svg" viewBox="0 0 24 24" fill="none"><g transform="scale(0.5)"><g> <path stroke="currentColor" d="M14 20c-2.4358 0 -4.00641 0.0952 -5.00678 0.2044 -1.10301 0.1204 -1.95348 0.8281 -2.45335 1.8186 -0.45527 0.9022 -1.03929 2.1302 -1.5657 3.4532 -0.7524 1.8911 -0.97404 3.9348 -0.97409 5.97L4 34.9286" stroke-width="3.5"></path> <path stroke="currentColor" d="M34 20c2.4359 0 4.0064 0.0952 5.0068 0.2044 1.103 0.1204 1.9534 0.828 2.4533 1.8186 0.4553 0.9022 1.0393 2.1301 1.5657 3.4532 0.7524 1.8911 0.9741 3.9348 0.9741 5.97L44 34.9286" stroke-width="3.5"></path> <path stroke="currentColor" d="m34 20.7879 -0.0001 -3.4823c0 -2.0352 -0.2217 -4.079 -0.9741 -5.97 -0.5264 -1.3231 -1.1104 -2.55104 -1.5657 -3.45322 -0.4999 -0.99056 -1.3503 -1.69818 -2.4533 -1.81861 -1.0004 -0.10921 -2.5709 -0.20439 -5.0068 -0.20439 -2.4358 0 -4.0064 0.09518 -5.0068 0.20439 -1.103 0.12043 -1.9535 0.82806 -2.4533 1.81864 -0.4553 0.90219 -1.0393 2.13009 -1.5657 3.45319 -0.7524 1.891 -0.9741 3.9347 -0.9741 5.97L14 20.7879" stroke-width="3.5"></path> <path stroke="currentColor" d="M4.18933 39.5148c0.11939 1.2909 1.15768 2.2361 2.45213 2.3072C8.22347 41.909 10.6743 42 14 42s5.7765 -0.091 7.3585 -0.178c1.2945 -0.0711 2.3328 -1.0163 2.4522 -2.3072C23.9114 38.4254 24 36.9212 24 35s-0.0886 -3.4253 -0.1893 -4.5148c-0.1194 -1.2909 -1.1577 -2.2361 -2.4522 -2.3072C19.7765 28.091 17.3257 28 14 28s-5.77653 0.091 -7.35854 0.178c-1.29445 0.0711 -2.33274 1.0163 -2.45213 2.3072C4.08858 31.5747 4 33.0788 4 35s0.08858 3.4253 0.18933 4.5148Z" stroke-width="3.5"></path> <path stroke="currentColor" d="M24.1893 39.5148c0.1194 1.2909 1.1577 2.2361 2.4522 2.3072 1.582 0.087 4.0328 0.178 7.3585 0.178s5.7765 -0.091 7.3585 -0.178c1.2945 -0.0711 2.3328 -1.0163 2.4522 -2.3072C43.9114 38.4254 44 36.9212 44 35s-0.0886 -3.4253 -0.1893 -4.5148c-0.1194 -1.2909 -1.1577 -2.2361 -2.4522 -2.3072C39.7765 28.091 37.3257 28 34 28s-5.7765 0.091 -7.3585 0.178c-1.2945 0.0711 -2.3328 1.0163 -2.4522 2.3072C24.0886 31.5747 24 33.0788 24 35s0.0886 3.4253 0.1893 4.5148Z" stroke-width="3.5"></path> <path stroke="currentColor" d="M14.1893 25.3741c0.1194 1.2909 1.1577 2.2362 2.4522 2.3073 1.582 0.0869 4.0328 0.178 7.3585 0.178s5.7765 -0.0911 7.3585 -0.178c1.2945 -0.0711 2.3328 -1.0164 2.4522 -2.3073 0.1007 -1.0894 0.1893 -2.5935 0.1893 -4.5147 0 -1.9213 -0.0886 -3.4254 -0.1893 -4.5148 -0.1194 -1.2909 -1.1577 -2.2361 -2.4522 -2.3073 -1.582 -0.0869 -4.0328 -0.1779 -7.3585 -0.1779s-5.7765 0.091 -7.3585 0.1779c-1.2945 0.0712 -2.3328 1.0164 -2.4522 2.3073C14.0886 17.434 14 18.9381 14 20.8594c0 1.9212 0.0886 3.4253 0.1893 4.5147Z" stroke-width="3.5"></path> <path stroke="currentColor" stroke-linecap="round" d="M24 5.85938v7.85712" stroke-width="3.5"></path> <path stroke="currentColor" stroke-linecap="round" d="m22.4231 22.9219 -2.4231 0" stroke-width="3.5"></path> <path stroke="currentColor" stroke-linecap="round" d="m12.0012 37.043 -2.42308 0" stroke-width="3.5"></path> <path stroke="currentColor" stroke-linecap="round" d="m32.0012 37.043 -2.4231 0" stroke-width="3.5"></path> </g></g></svg>
