<svg xmlns="http://www.w3.org/2000/svg" viewBox="0 0 24 24" fill="none"><g transform="scale(0.5)"><g> <path fill="currentColor" d="M11.6562 29.5273c3.0259 0 5.2885 0.0802 6.793 0.1602 1.9942 0.106 3.6779 1.5913 3.8613 3.6719 0.0922 1.0463 0.169 2.4446 0.169 4.1953 0 1.7506 -0.0768 3.1481 -0.169 4.1943 -0.1833 2.0807 -1.867 3.5659 -3.8613 3.6719 -1.5045 0.08 -3.7671 0.1601 -6.793 0.1602 -3.026 0 -5.28927 -0.0802 -6.7939 -0.1602 -1.99422 -0.1061 -3.678 -1.5912 -3.86132 -3.6719 -0.09218 -1.0462 -0.168939 -2.4437 -0.168949 -4.1943 0 -1.7507 0.076763 -3.149 0.168949 -4.1953 0.18347 -2.0805 1.86719 -3.5659 3.86132 -3.6719 1.50463 -0.08 3.7679 -0.1602 6.7939 -0.1602m24.6876 0c3.0258 0 5.2884 0.0802 6.7929 0.1602 1.9942 0.106 3.6779 1.5913 3.8613 3.6719 0.0922 1.0463 0.169 2.4446 0.169 4.1953 0 1.7506 -0.0768 3.1481 -0.169 4.1943 -0.1833 2.0807 -1.867 3.5659 -3.8613 3.6719 -1.5045 0.08 -3.7671 0.1601 -6.7929 0.1602 -3.0261 0 -5.2894 -0.0802 -6.794 -0.1602 -1.9942 -0.1061 -3.678 -1.5912 -3.8613 -3.6719 -0.0922 -1.0462 -0.169 -2.4437 -0.169 -4.1943 0 -1.7507 0.0768 -3.149 0.169 -4.1953 0.1835 -2.0805 1.8672 -3.5659 3.8613 -3.6719 1.5046 -0.08 3.7679 -0.1602 6.794 -0.1602M5.57715 39.7266c-0.82843 0 -1.5 0.6715 -1.5 1.5 0 0.8284 0.67157 1.5 1.5 1.5H8c0.82843 0 1.5 -0.6716 1.5 -1.5 0 -0.8285 -0.67157 -1.5 -1.5 -1.5zm24.42285 0c-0.8284 0 -1.5 0.6715 -1.5 1.5 0 0.8284 0.6716 1.5 1.5 1.5h2.4229c0.8284 0 1.5 -0.6716 1.5 -1.5 0 -0.8285 -0.6716 -1.5 -1.5 -1.5zM10.9707 22.9404c0.1605 1.7343 0.9885 3.1906 2.1846 4.1963 -0.4777 -0.0043 -0.9773 -0.0068 -1.4991 -0.0068 -3.17201 0 -5.52873 0.0869 -7.07515 0.1719 -0.96435 0.053 -1.88972 0.3225 -2.71289 0.7695 0.01991 -0.051 0.03895 -0.1025 0.05957 -0.1533 0.46965 -1.1589 0.97497 -2.2258 1.38086 -3.0352 0.67861 -1.3531 1.9283 -2.4523 3.64063 -2.6289 0.88386 -0.0911 2.14732 -0.167 3.95118 -0.1836 0.022 0.3117 0.0455 0.6018 0.0703 0.8701m26.1279 -0.8701c1.804 0.0166 3.0673 0.0925 3.9512 0.1836 1.7124 0.1766 2.963 1.2757 3.6416 2.6289 0.4059 0.8094 0.9112 1.8763 1.3809 3.0352 0.0205 0.0507 0.0387 0.1024 0.0586 0.1533 -0.8233 -0.447 -1.7486 -0.7166 -2.7129 -0.7695 -1.5464 -0.085 -3.9026 -0.1719 -7.0742 -0.1719 -0.5225 0 -1.0228 0.0025 -1.501 0.0068 1.1968 -1.0057 2.026 -2.4616 2.1865 -4.1963 0.0248 -0.2683 0.0473 -0.5584 0.0693 -0.8701M24 10.3438c3.0258 0 5.2884 0.0801 6.793 0.1601 1.9942 0.106 3.6778 1.5914 3.8613 3.6719 0.0922 1.0463 0.1689 2.4446 0.1689 4.1953 0 1.7506 -0.0767 3.1481 -0.1689 4.1943 -0.1833 2.0807 -1.867 3.5659 -3.8613 3.6719 -1.5046 0.08 -3.7672 0.1602 -6.793 0.1602 -3.0261 0 -5.2893 -0.0802 -6.7939 -0.1602 -1.9943 -0.106 -3.678 -1.5912 -3.8614 -3.6719 -0.0921 -1.0462 -0.1689 -2.4437 -0.1689 -4.1943 0 -1.7507 0.0767 -3.149 0.1689 -4.1953 0.1835 -2.0805 1.8672 -3.5659 3.8614 -3.6719 1.5046 -0.08 3.7678 -0.1601 6.7939 -0.1601m-6 9.8593c-0.8284 0 -1.5 0.6716 -1.5 1.5 0 0.8285 0.6716 1.5 1.5 1.5h2.4229c0.8284 0 1.5 -0.6715 1.5 -1.5 0 -0.8284 -0.6716 -1.5 -1.5 -1.5zm7.5 -17.30466c1.4143 0.02791 2.4492 0.09481 3.2061 0.17285 1.7123 0.1766 2.963 1.2757 3.6416 2.62891 0.4058 0.80942 0.9112 1.87632 1.3808 3.03515 0.0199 0.04914 0.0374 0.09917 0.0567 0.14844 -0.8228 -0.44635 -1.7474 -0.71561 -2.711 -0.76856 -1.2918 -0.07097 -3.1488 -0.14314 -5.5742 -0.16503zm-3 5.05176c-2.4259 0.02188 -4.2833 0.09405 -5.5752 0.16503 -0.9634 0.05296 -1.8883 0.3213 -2.7109 0.76758 0.0191 -0.04909 0.0377 -0.09849 0.0576 -0.14746 0.4696 -1.15887 0.975 -2.22573 1.3808 -3.03515 0.6786 -1.35315 1.9283 -2.45232 3.6407 -2.62891 0.7569 -0.07806 1.7923 -0.14495 3.207 -0.17285z"></path> </g></g></svg>
