<svg xmlns="http://www.w3.org/2000/svg" viewBox="0 0 24 24" fill="none"><g transform="scale(0.5)"><g> <path fill="currentColor" d="M24 1.5c-7.4014 0 -12.5927 0.27808 -15.8643 0.54389 -3.28785 0.26714 -5.82468 2.80397 -6.09181 6.09182C1.77808 11.4073 1.5 16.5986 1.5 24c0 7.4014 0.27808 12.5927 0.54389 15.8643 0.26713 3.2879 2.80396 5.8247 6.09182 6.0918C11.4073 46.2219 16.5986 46.5 24 46.5c7.4014 0 12.5927 -0.2781 15.8643 -0.5439 3.2878 -0.2671 5.8247 -2.8039 6.0918 -6.0918 0.2658 -3.2716 0.5439 -8.4629 0.5439 -15.8643 0 -7.4014 -0.2781 -12.5927 -0.5439 -15.86431 -0.2671 -3.28785 -2.804 -5.82467 -6.0918 -6.0918C36.5927 1.77808 31.4014 1.5 24 1.5Z" opacity="0.4"></path> <path fill="currentColor" d="M20.765 29.8333V36c0 1.1046 -0.8954 2 -2 2H16c-1.1046 0 -2 -0.8954 -2 -2V13.728c0 -1.5612 0.9306 -2.9453 2.4652 -3.2325C17.8524 10.2359 19.8609 10 22.58 10 29.8425 10 36 12.3333 36 19.9167c0 7.5833 -5.5525 9.9166 -12.815 9.9166h-2.42Zm1.815 -6.4166c2.2285 0 6.655 0 6.655 -3.5s-4.4147 -3.5 -6.655 -3.5l-1.815 0v7h1.815Z"></path> </g></g></svg>
