<svg xmlns="http://www.w3.org/2000/svg" viewBox="0 0 24 24" fill="none"><g transform="scale(0.5)"><g> <path stroke="currentColor" stroke-linecap="round" stroke-linejoin="round" d="M3.53896 8.25718c0.20761 -2.5553 2.16291 -4.5106 4.71821 -4.71821C11.4854 3.27668 16.636 3 24 3c7.364 0 12.5146 0.27667 15.7428 0.53896 2.5553 0.20761 4.5106 2.16291 4.7182 4.71821C44.7233 11.4854 45 16.636 45 24c0 7.364 -0.2767 12.5146 -0.539 15.7428 -0.2076 2.5553 -2.1629 4.5106 -4.7182 4.7182C36.5146 44.7233 31.364 45 24 45c-7.364 0 -12.5146 -0.2767 -15.74282 -0.539 -2.5553 -0.2076 -4.5106 -2.1629 -4.71821 -4.7182C3.27668 36.5146 3 31.364 3 24c0 -7.364 0.27667 -12.5146 0.53896 -15.74282Z" stroke-width="3.5"></path> <path stroke="currentColor" stroke-linejoin="round" d="M20.765 29.8333V35.5c0 1.3807 -1.1193 2.5 -2.5 2.5H16.5c-1.3807 0 -2.5 -1.1193 -2.5 -2.5V13.728c0 -1.5612 0.9306 -2.9453 2.4652 -3.2325C17.8524 10.2359 19.8609 10 22.58 10 29.8425 10 36 12.3333 36 19.9167c0 7.5833 -5.5525 9.9166 -12.815 9.9166h-2.42Zm1.815 -6.4166c2.2285 0 6.655 0 6.655 -3.5s-4.4147 -3.5 -6.655 -3.5l-1.815 0v7h1.815Z" stroke-width="3.5"></path> </g></g></svg>
