<svg xmlns="http://www.w3.org/2000/svg" viewBox="0 0 24 24" fill="none"><g transform="scale(0.5)"><g> <path fill="currentColor" fill-rule="evenodd" d="M8.1357 2.04389C11.4073 1.77808 16.5986 1.5 24 1.5c7.4014 0 12.5927 0.27808 15.8643 0.54389 3.2878 0.26713 5.8247 2.80395 6.0918 6.0918C46.2219 11.4073 46.5 16.5986 46.5 24c0 7.4014 -0.2781 12.5927 -0.5439 15.8643 -0.2671 3.2879 -2.804 5.8247 -6.0918 6.0918 -3.2716 0.2658 -8.4629 0.5439 -15.8643 0.5439 -7.4014 0 -12.5927 -0.2781 -15.86429 -0.5439 -3.28786 -0.2671 -5.82469 -2.8039 -6.09182 -6.0918C1.77808 36.5927 1.5 31.4014 1.5 24c0 -7.4014 0.27808 -12.5927 0.54389 -15.86429 0.26713 -3.28785 2.80396 -5.82468 6.09181 -6.09182ZM20.765 36v-6.1667h2.42C30.4475 29.8333 36 27.5 36 19.9167 36 12.3333 29.8425 10 22.58 10c-2.7191 0 -4.7276 0.2359 -6.1148 0.4955C14.9306 10.7827 14 12.1668 14 13.728V36c0 1.1046 0.8954 2 2 2h2.765c1.1046 0 2 -0.8954 2 -2Zm8.47 -16.0833c0 3.5 -4.4265 3.5 -6.655 3.5h-1.815v-7h1.815c2.2403 0 6.655 0 6.655 3.5Z" clip-rule="evenodd"></path> </g></g></svg>
