<svg xmlns="http://www.w3.org/2000/svg" viewBox="0 0 24 24" fill="none"><g transform="scale(0.5)"><g> <path fill="currentColor" d="M24 46.5c-2.8371 0 -6.6963 -1.1601 -10.167 -2.452 -3.5332 -1.3151 -6.89388 -2.8574 -8.81998 -3.7787 -1.48332 -0.7096 -2.57306 -2.0888 -2.81011 -3.7834C1.89899 34.3132 1.5 30.2675 1.5 24c0 -6.2675 0.39899 -10.3132 0.70291 -12.4859 0.23705 -1.69466 1.32679 -3.0738 2.81012 -3.78336 1.92609 -0.92137 5.28677 -2.4636 8.81997 -3.77873C17.3037 2.66012 21.1629 1.5 24 1.5c2.8371 0 6.6963 1.16012 10.167 2.45202 3.5332 1.31512 6.8939 2.85736 8.82 3.77872 1.4833 0.70956 2.573 2.0887 2.8101 3.78336C46.101 13.6868 46.5 17.7325 46.5 24c0 6.2675 -0.399 10.3132 -0.7029 12.4859 -0.2371 1.6947 -1.3268 3.0738 -2.8101 3.7834 -1.9261 0.9213 -5.2868 2.4636 -8.82 3.7787C30.6963 45.3399 26.8371 46.5 24 46.5Z" opacity="0.4"></path> <path fill="currentColor" fill-rule="evenodd" d="M44.6733 11.2198c0.4182 -0.2068 0.6771 -0.5606 0.777 -0.9494 -0.4188 -0.97648 -1.1454 -1.78232 -2.0552 -2.32144 -2.0746 -1.00558 -4.169 -1.96617 -6.3075 -2.84861 -0.9411 -0.38816 -1.9242 -0.77729 -2.921 -1.14833C30.6959 2.66012 26.8366 1.5 23.9996 1.5c-2.8371 0 -6.6964 1.16012 -10.1671 2.45201 -0.9948 0.3703 -1.9759 0.7586 -2.9152 1.14597 -2.14048 0.88308 -4.23678 1.84447 -6.3133 2.85097 -0.90975 0.53912 -1.63635 1.34497 -2.05517 2.32145 0.09986 0.3888 0.35884 0.7426 0.77695 0.9494 2.5233 1.2482 5.06863 2.4394 7.68012 3.5136l0.2516 0.1035c3.3588 1.3822 7.0543 2.903 10.7425 3.3366v28.1698c0.7059 0.1009 1.3776 0.1567 2 0.1567 0.6224 0 1.2941 -0.0558 2 -0.1567V18.1734c3.6879 -0.4337 7.3831 -1.9544 10.7417 -3.3365l0.2515 -0.1035c2.6115 -1.0741 5.1568 -2.2654 7.6801 -3.5136Z" clip-rule="evenodd"></path> </g></g></svg>
