<svg xmlns="http://www.w3.org/2000/svg" viewBox="0 0 24 24" fill="none"><g transform="scale(0.5)"><g> <path stroke="currentColor" stroke-linejoin="round" d="M3.68844 36.2781c0.1628 1.1638 0.91178 2.1309 1.97188 2.638C9.47422 40.7405 18.9223 45 24 45c5.0777 0 14.5258 -4.2595 18.3397 -6.0839 1.0601 -0.5071 1.8091 -1.4742 1.9719 -2.638C44.605 34.18 45 30.204 45 24c0 -6.204 -0.395 -10.18 -0.6884 -12.2781 -0.1628 -1.1638 -0.9118 -2.1309 -1.9719 -2.63801C38.5258 7.25947 29.0777 3 24 3S9.47422 7.25947 5.66032 9.08389c-1.0601 0.50711 -1.80908 1.47421 -1.97188 2.63801C3.39495 13.82 3 17.796 3 24c0 6.204 0.39495 10.18 0.68844 12.2781Z" stroke-width="4"></path> <path stroke="currentColor" stroke-linecap="round" stroke-linejoin="round" d="M44.2813 11.7559c-3.2483 1.5994 -16.5677 8.044 -20.2818 8.044 -3.714 0 -17.03339 -6.4446 -20.28173 -8.044" stroke-width="4"></path> <path stroke="currentColor" stroke-linecap="round" stroke-linejoin="round" d="M24 19.8008V44.751" stroke-width="4"></path> </g></g></svg>
