<svg xmlns="http://www.w3.org/2000/svg" viewBox="0 0 24 24" fill="none"><g transform="scale(0.5)"><g> <path fill="currentColor" fill-rule="evenodd" d="M24 1.5c-2.8371 0 -6.6963 1.16012 -10.167 2.45202 -3.5332 1.31512 -6.89388 2.85735 -8.81997 3.77872 -1.04946 0.50201 -1.9019 1.33919 -2.39474 2.38616 0.49534 0.238 1.16386 0.5571 1.96095 0.9321 1.78505 0.8398 4.21066 1.9583 6.77786 3.0756 2.5712 1.1191 5.2653 2.2287 7.5923 3.0558 1.1641 0.4137 2.2175 0.75 3.1065 0.9812 0.9144 0.2377 1.5596 0.3384 1.9441 0.3384 0.3845 0 1.0297 -0.1007 1.9441 -0.3384 0.889 -0.2312 1.9424 -0.5675 3.1065 -0.9812 2.327 -0.8271 5.0211 -1.9367 7.5923 -3.0558 2.5672 -1.1173 4.9928 -2.2358 6.7779 -3.0756 0.797 -0.375 1.4656 -0.6941 1.9609 -0.9321 -0.4928 -1.04697 -1.3453 -1.88414 -2.3947 -2.38616l-0.6473 1.35315 0.6473 -1.35315c-1.9261 -0.92137 -5.2868 -2.4636 -8.82 -3.77872C30.6963 2.66012 26.8371 1.5 24 1.5ZM3.30212 13.7635c-0.48319 -0.2273 -0.9198 -0.4343 -1.30019 -0.6157C1.74803 15.498 1.5 19.0584 1.5 24c0 6.2675 0.39899 10.3132 0.70291 12.4859 0.23705 1.6946 1.32679 3.0738 2.81011 3.7834 1.9261 0.9213 5.28678 2.4636 8.81998 3.7787 2.8912 1.0762 6.052 2.0609 8.667 2.3598l0 -25.0703c-0.3873 -0.0727 -0.7902 -0.1662 -1.1991 -0.2725 -1.0038 -0.261 -2.1464 -0.6279 -3.3562 -1.0579 -2.4209 -0.8604 -5.1865 -2.0008 -7.7848 -3.1317 -2.60233 -1.1327 -5.05597 -2.2642 -6.85778 -3.1119ZM25.5 21.3375l0 25.0703c2.615 -0.2989 5.7758 -1.2836 8.667 -2.3598 3.5332 -1.3151 6.8939 -2.8574 8.82 -3.7787 1.4833 -0.7096 2.573 -2.0887 2.8101 -3.7834C46.101 34.3132 46.5 30.2675 46.5 24c0 -4.9416 -0.248 -8.502 -0.5019 -10.8522 -0.3804 0.1814 -0.817 0.3884 -1.3002 0.6157 -1.8018 0.8477 -4.2555 1.9792 -6.8578 3.1119 -2.5983 1.1309 -5.3639 2.2713 -7.7848 3.1317 -1.2098 0.43 -2.3524 0.7969 -3.3562 1.0579 -0.4089 0.1063 -0.8118 0.1998 -1.1991 0.2725Z" clip-rule="evenodd"></path> </g></g></svg>
