<svg xmlns="http://www.w3.org/2000/svg" viewBox="0 0 24 24" fill="none"><g transform="scale(0.5)"><g> <path fill="currentColor" d="M43.9247 9.7806c-1.9595 -0.0821 -4.7694 -0.1504 -7.4572 -0.0384 -1.7783 0.0741 -3.1499 1.5148 -3.2227 3.2709 -0.0798 1.9265 -0.1109 3.6081 -0.1229 4.6249 -0.0034 0.2879 -0.2361 0.5192 -0.521 0.5216 -1.3136 0.0109 -3.7578 0.0438 -6.5375 0.1434 -1.8251 0.0654 -3.297 1.5162 -3.371 3.3455 -0.0758 1.8698 -0.1057 3.4968 -0.1174 4.4898 -0.0035 0.2879 -0.2362 0.5192 -0.521 0.5216 -1.3137 0.0109 -3.7578 0.0439 -6.5376 0.1435 -1.8251 0.0653 -3.2969 1.5161 -3.371 3.3453 -0.0758 1.87 -0.1056 3.4969 -0.1174 4.4899 -0.0034 0.288 -0.2362 0.5193 -0.521 0.5216 -1.3396 0.0112 -3.855 0.0452 -6.7031 0.1494 -1.7355 0.0635 -3.1932 1.3946 -3.263 3.1699 -0.0763 1.9398 -0.0263 3.9532 0.0422 5.4764 0.0782 1.7399 1.4425 3.1107 3.1803 3.2023 2.9584 0.1559 8.728 0.3618 18.5788 0.3618 10.3814 0 17.1076 -0.2286 20.5121 -0.3863 1.7855 -0.0827 3.2008 -1.4916 3.2899 -3.2772 0.1561 -3.1305 0.3758 -8.8765 0.3758 -16.425 0 -7.0626 -0.1924 -11.8041 -0.3453 -14.4578 -0.101 -1.7538 -1.498 -3.1196 -3.25 -3.1931Z" opacity="0.4"></path> <path fill="currentColor" d="M16.0569 0.5654c-0.6537 -0.2083 -1.3106 -0.0152 -1.7977 0.3586 -1.0535 0.8085 -3.4635 2.7639 -7.384 6.5181 -0.8531 -0.7448 -1.6302 -1.3828 -2.293 -1.9063C3.1892 4.4355 1.2048 5.169 0.9379 6.9523 0.5765 9.3669 0.2471 13.1403 0.7008 17.5241c0.1185 1.1448 1.0206 2.0472 2.1655 2.1658 4.3812 0.454 8.1521 0.1243 10.5647 -0.2373 1.7823 -0.2673 2.5156 -2.2501 1.4171 -3.643 -0.5184 -0.6573 -1.1493 -1.4271 -1.8851 -2.2722 3.8132 -3.9343 5.7489 -6.3789 6.5316 -7.4358 0.3539 -0.4779 0.5293 -1.1098 0.3346 -1.7395 -0.1954 -0.632 -0.6026 -1.56 -1.4368 -2.3873 -0.8137 -0.8069 -1.7113 -1.2107 -2.3355 -1.4095Z"></path> </g></g></svg>
