<svg xmlns="http://www.w3.org/2000/svg" viewBox="0 0 24 24" fill="none"><g transform="scale(0.5)"><g> <path stroke="currentColor" stroke-linejoin="round" d="M45.6632 12.7462c-0.0839 -1.457 -1.2418 -2.5905 -2.7 -2.6516 -1.9099 -0.0801 -4.6421 -0.14631 -7.2505 -0.0376 -1.4684 0.0612 -2.6118 1.2513 -2.6727 2.7197 -0.0778 1.8776 -0.108 3.5169 -0.1198 4.5079 -0.0066 0.5522 -0.4531 0.9995 -1.0053 1.0041 -1.2817 0.0106 -3.667 0.0428 -6.3792 0.14 -1.5258 0.0546 -2.753 1.2665 -2.8148 2.792 -0.0739 1.8225 -0.103 3.4085 -0.1145 4.3763 -0.0065 0.5522 -0.453 0.9995 -1.0053 1.0041 -1.2817 0.0106 -3.667 0.0428 -6.3792 0.1399 -1.5258 0.0547 -2.753 1.2666 -2.8148 2.7921 -0.0738 1.8225 -0.1029 3.4085 -0.1144 4.3763 -0.0066 0.5522 -0.4531 0.9995 -1.0054 1.0041 -1.30701 0.0108 -3.76183 0.044 -6.54069 0.1458 -1.4557 0.0533 -2.65231 1.1642 -2.70953 2.6198 -0.0738 1.8772 -0.0255 3.8306 0.04112 5.3132 0.06488 1.4437 1.1937 2.5785 2.63686 2.6546C7.59733 45.7989 13.2304 46 22.8568 46c10.1445 0 16.7143 -0.2234 20.0355 -0.3772 1.4889 -0.0689 2.6666 -1.2415 2.7408 -2.7302 0.1524 -3.0544 0.3669 -8.6648 0.3669 -16.0369 0 -6.8975 -0.1878 -11.5245 -0.3368 -14.1095Z" stroke-width="3.5"></path> <path stroke="currentColor" stroke-linecap="round" stroke-linejoin="round" d="M3.86771 18.9863c-0.88429 -0.09 -1.58122 -0.7871 -1.67111 -1.6713 -0.40026 -3.9374 -0.11681 -7.3365 0.20681 -9.55343 0.19726 -1.35126 1.68071 -1.91673 2.7503 -1.06773 0.67667 0.53711 1.47602 1.19867 2.3527 1.97558 3.80279 -3.66094 6.13289 -5.55677 7.14269 -6.3335 0.3753 -0.28872 0.8502 -0.41539 1.3004 -0.26863 0.5314 0.17323 1.2795 0.51745 1.9573 1.18962 0.6937 0.68801 1.041 1.46074 1.2116 1.99975 0.1373 0.43398 0.0212 0.89089 -0.2502 1.25632 -0.7502 1.01009 -2.6253 3.37028 -6.3429 7.18132 0.7691 0.87 1.4245 1.6634 1.9572 2.3355 0.8477 1.0696 0.2823 2.5519 -1.0681 2.7494 -2.2151 0.3238 -5.6119 0.6076 -9.54669 0.2071Z" stroke-width="3.5"></path> </g></g></svg>
