<svg xmlns="http://www.w3.org/2000/svg" viewBox="0 0 24 24" fill="none"><g transform="scale(0.5)"><g> <path fill="currentColor" fill-rule="evenodd" d="M14.2592 0.924c0.4871 -0.3738 1.144 -0.5669 1.7977 -0.3586 0.6242 0.1988 1.5218 0.6025 2.3355 1.4094 0.8342 0.8273 1.2414 1.7553 1.4368 2.3873 0.1947 0.6297 0.0193 1.2616 -0.3346 1.7395 -0.7827 1.0569 -2.7184 3.5015 -6.5316 7.4358 0.7359 0.8451 1.3667 1.6149 1.8851 2.2722 1.0986 1.3929 0.3652 3.3758 -1.4171 3.643 -2.4126 0.3616 -6.1835 0.6914 -10.5647 0.2373 -1.1449 -0.1186 -2.047 -1.021 -2.1655 -2.1658C0.2471 13.1403 0.5765 9.3669 0.9379 6.9523c0.2669 -1.7833 2.2513 -2.5168 3.6443 -1.4165 0.6627 0.5235 1.4398 1.1615 2.293 1.9063 3.9205 -3.7542 6.3304 -5.7096 7.384 -6.5181Zm22.2083 8.8182c2.6878 -0.112 5.4977 -0.0437 7.4572 0.0384 1.7521 0.0735 3.149 1.4393 3.2501 3.1931 0.1528 2.6537 0.3452 7.3952 0.3452 14.4579 0 7.5485 -0.2197 13.2944 -0.3758 16.4249 -0.0891 1.7856 -1.5044 3.1945 -3.2898 3.2773 -3.4046 0.1577 -10.1308 0.3862 -20.5121 0.3862 -9.8508 0 -15.6205 -0.2058 -18.5789 -0.3618 -1.7378 -0.0916 -3.1021 -1.4624 -3.1803 -3.2023 -0.0685 -1.5232 -0.1184 -3.5366 -0.0422 -5.4764 0.0698 -1.7753 1.5275 -3.1063 3.263 -3.1698 2.8481 -0.1044 5.3636 -0.1383 6.7031 -0.1494 0.2848 -0.0024 0.5176 -0.2337 0.521 -0.5217 0.0118 -0.9929 0.0416 -2.6199 0.1174 -4.4898 0.0742 -1.8293 1.5459 -3.2801 3.371 -3.3454 2.7798 -0.0996 5.2239 -0.1325 6.5376 -0.1435 0.2848 -0.0023 0.5175 -0.2336 0.521 -0.5216 0.0118 -0.993 0.0416 -2.6199 0.1174 -4.4898 0.074 -1.8293 1.5459 -3.2801 3.371 -3.3454 2.7797 -0.0996 5.2239 -0.1326 6.5375 -0.1435 0.2849 -0.0023 0.5176 -0.2337 0.521 -0.5215 0.0121 -1.0169 0.0431 -2.6985 0.1229 -4.625 0.0728 -1.7561 1.4444 -3.1968 3.2228 -3.2709Z" clip-rule="evenodd"></path> </g></g></svg>
